<?xml version="1.0" standalone="no"?>
<!DOCTYPE svg PUBLIC "-//W3C//DTD SVG 20010904//EN"
 "http://www.w3.org/TR/2001/REC-SVG-20010904/DTD/svg10.dtd">
<svg version="1.0" xmlns="http://www.w3.org/2000/svg"
 width="835.000000pt" height="766.000000pt" viewBox="0 0 835.000000 766.000000"
 preserveAspectRatio="xMidYMid meet">

<g transform="translate(0.000000,766.000000) scale(0.100000,-0.100000)"
fill="#000000" stroke="none">
<path d="M4120 7110 c0 -5 -7 -10 -15 -10 -8 0 -32 -9 -52 -20 -21 -11 -49
-20 -63 -20 -24 1 -24 1 -6 15 10 8 24 16 30 18 6 2 8 7 5 11 -3 3 -21 -5 -39
-19 -29 -21 -45 -25 -109 -25 -95 0 -215 -22 -306 -55 -66 -24 -63 -25 28 -9
20 3 37 4 37 2 0 -3 -22 -19 -50 -37 l-50 -32 -46 20 c-34 15 -43 17 -34 6 10
-12 10 -15 -1 -15 -8 -1 1 -9 19 -19 l34 -18 -70 -36 c-38 -20 -75 -43 -82
-52 -7 -8 -18 -15 -24 -16 -6 0 -42 -35 -80 -77 -66 -73 -117 -162 -118 -207
0 -11 -7 -42 -15 -68 -12 -38 -13 -61 -5 -110 6 -34 13 -141 17 -237 3 -96 12
-229 20 -295 9 -66 18 -159 20 -207 5 -91 24 -147 65 -188 11 -11 20 -34 20
-51 0 -19 4 -29 12 -27 13 5 14 14 22 143 3 50 12 144 21 210 16 122 17 215 5
270 -32 133 -41 211 -29 242 5 13 30 46 55 73 26 28 44 53 41 56 -4 4 14 22
39 41 34 26 49 32 57 24 6 -6 22 -11 34 -11 13 0 37 -7 54 -15 18 -10 51 -15
83 -14 29 1 57 0 63 -4 5 -3 20 0 34 7 13 7 30 11 36 9 7 -3 22 5 34 16 12 11
26 18 30 15 5 -3 17 0 28 6 11 5 31 11 45 12 13 1 24 5 23 8 -3 8 45 82 67
104 19 19 19 19 12 -25 -4 -24 -11 -48 -17 -53 -5 -6 -9 -15 -9 -20 0 -23 30
34 41 78 8 33 14 43 20 34 6 -9 9 -9 9 -1 0 6 -5 15 -10 18 -16 10 10 37 27
31 8 -3 12 -2 8 3 -3 5 -2 11 2 14 5 2 2 2 -6 0 -11 -3 -11 0 -3 10 7 8 10 17
7 20 -3 4 -2 5 2 2 3 -3 13 1 21 8 10 7 13 8 9 1 -4 -7 2 -14 14 -17 16 -4 18
-3 9 8 -9 10 -6 15 10 20 15 5 26 1 36 -12 9 -10 13 -12 9 -5 -3 6 -1 12 4 12
6 0 11 -5 11 -11 0 -6 7 -9 15 -5 14 5 20 -6 15 -29 -1 -5 4 -5 11 2 9 9 18 6
40 -14 25 -24 43 -32 77 -35 6 -1 12 -5 12 -10 0 -5 3 -7 8 -5 4 3 13 -1 19
-8 10 -11 8 -15 -10 -18 -12 -2 1 -5 29 -6 39 -1 56 -6 72 -24 15 -16 31 -22
50 -20 15 2 34 -1 42 -7 13 -9 13 -11 0 -20 -12 -8 -11 -10 8 -10 12 0 22 5
22 12 0 9 3 9 12 0 7 -7 20 -12 29 -12 10 0 20 -6 22 -12 4 -10 6 -10 6 0 1
10 6 10 23 -2 27 -19 50 -21 25 -2 -16 13 -15 14 12 18 17 2 33 0 35 -6 3 -7
5 -6 5 2 1 10 6 10 24 1 26 -13 141 -131 139 -142 -1 -4 2 -16 7 -26 6 -10 11
-77 12 -149 1 -136 15 -226 41 -277 44 -83 65 -203 84 -462 3 -51 10 -93 16
-93 5 0 6 5 3 10 -3 6 -2 10 4 10 14 0 19 -31 9 -58 -6 -17 -5 -21 5 -17 6 4
3 0 -7 -9 -10 -8 -23 -13 -27 -10 -5 3 -9 -16 -9 -42 l0 -47 28 31 c15 16 36
33 47 36 12 3 29 20 39 36 17 30 17 32 0 58 -19 28 -27 55 -15 48 4 -3 7 4 7
14 0 10 -4 16 -8 14 -4 -3 -8 -1 -8 5 0 6 -9 19 -21 30 -12 11 -18 25 -14 31
4 6 8 24 9 40 1 17 14 40 29 54 15 14 27 31 27 37 0 7 7 20 16 30 15 17 15 19
0 34 -9 9 -16 22 -17 28 0 7 -2 21 -4 32 -2 11 3 58 11 105 19 104 18 81 9
280 -4 91 -8 204 -9 251 -1 81 -4 92 -46 175 -25 49 -45 91 -45 94 0 3 -34 43
-75 89 -41 46 -74 87 -72 92 1 5 -6 12 -15 16 -10 4 -20 9 -23 12 -3 4 -22 15
-43 26 -38 19 -120 83 -163 125 -29 27 -126 66 -243 96 -53 14 -112 30 -131
36 -19 7 -62 13 -95 15 -98 4 -115 7 -115 21 0 6 -7 12 -15 12 -8 0 -15 -4
-15 -10z m-152 -572 c-1 -18 -11 -46 -22 -63 -23 -34 -46 -59 -46 -50 0 3 -13
-1 -30 -10 -40 -21 -38 -3 3 32 18 15 46 49 63 75 16 27 30 48 32 48 1 0 1
-15 0 -32z m-68 -46 c0 -10 -45 -52 -80 -76 -14 -9 -25 -22 -25 -28 0 -7 -13
-14 -29 -15 -16 -1 -35 -4 -43 -7 -29 -11 -11 5 29 25 52 27 139 95 131 103
-4 3 -1 6 5 6 7 0 12 -4 12 -8z"/>
<path d="M4260 6598 c0 -9 7 -22 17 -29 15 -13 15 -12 3 11 -17 34 -20 36 -20
18z"/>
<path d="M3980 6471 c-11 -23 -19 -41 -16 -41 7 0 47 72 42 77 -2 3 -14 -13
-26 -36z"/>
<path d="M3973 6405 c0 -8 4 -12 9 -9 5 3 6 10 3 15 -9 13 -12 11 -12 -6z"/>
<path d="M3936 6373 c-6 -14 -5 -15 5 -6 7 7 10 15 7 18 -3 3 -9 -2 -12 -12z"/>
<path d="M4545 5963 c-27 -8 -66 -15 -86 -17 -20 -1 -53 -13 -75 -27 -21 -13
-43 -23 -48 -21 -5 2 -6 -4 -2 -13 3 -9 2 -13 -4 -10 -6 3 -11 21 -11 38 -1
25 -3 27 -6 9 -4 -22 -5 -23 -18 -6 -12 17 -13 16 -8 -9 3 -15 9 -24 14 -21 5
3 9 -4 9 -15 0 -12 5 -21 10 -21 7 0 7 -7 0 -20 -6 -11 -9 -24 -6 -29 8 -12
-21 -34 -33 -26 -7 3 -8 0 -5 -9 4 -11 0 -16 -10 -16 -9 0 -16 5 -16 12 0 6
-3 8 -6 5 -4 -4 -1 -14 7 -24 9 -11 10 -14 1 -9 -12 7 -21 -6 -26 -38 -1 -8
-5 -19 -9 -22 -4 -4 -1 -14 6 -22 9 -13 9 -14 0 -8 -7 4 -13 3 -13 -1 0 -5 6
-15 13 -22 10 -11 10 -13 0 -7 -22 12 -15 -2 17 -34 16 -17 32 -43 36 -58 11
-50 13 -53 40 -48 20 4 23 2 15 -8 -9 -10 -8 -15 4 -20 9 -3 13 -2 10 4 -3 6
-2 10 4 10 6 0 8 15 6 36 -5 32 -4 34 11 20 19 -19 41 -22 27 -3 -5 6 -15 25
-21 41 l-13 29 28 -18 c15 -9 33 -23 38 -30 6 -6 23 -15 39 -19 15 -4 40 -16
55 -27 14 -10 49 -21 76 -24 33 -3 45 -2 35 4 -8 6 -17 8 -21 5 -4 -2 -24 5
-43 16 -20 11 -36 17 -36 14 0 -2 -9 0 -20 6 -11 6 -18 15 -15 21 4 5 2 8 -3
7 -6 -2 -9 2 -8 7 0 6 10 9 21 8 16 -2 -47 39 -65 42 -33 5 -59 18 -64 30 -4
12 0 14 22 8 15 -4 42 -7 59 -7 20 0 28 -3 20 -8 -8 -5 -5 -8 9 -8 11 0 25 5
31 11 7 7 13 7 17 0 4 -5 13 -8 20 -5 9 3 17 -3 21 -15 3 -12 11 -21 16 -21 6
0 7 5 4 10 -3 6 1 10 9 10 9 0 16 -8 16 -17 0 -15 2 -16 10 -3 11 18 110 23
110 6 0 -6 5 -3 11 7 12 20 45 23 52 5 2 -7 -8 -21 -22 -30 -19 -13 -21 -18
-9 -18 9 0 19 6 21 13 4 8 6 8 6 -2 1 -11 4 -10 15 4 13 18 61 28 81 16 6 -3
21 -7 34 -9 21 -3 23 -1 11 12 -10 13 -10 16 3 16 9 0 27 -4 41 -10 17 -6 26
-6 26 0 0 10 -14 14 -81 25 -40 6 -76 35 -44 35 12 0 8 7 -14 26 -17 14 -28
31 -24 36 4 7 1 8 -7 3 -10 -6 -12 -4 -7 9 4 9 3 15 -2 11 -6 -3 -38 10 -73
29 -35 19 -82 37 -105 41 -24 4 -45 11 -49 16 -9 15 83 10 143 -7 30 -9 57
-13 61 -10 3 4 21 -8 39 -26 30 -29 71 -48 57 -27 -3 5 -9 7 -14 4 -5 -3 -11
-1 -14 3 -3 5 4 9 15 8 11 0 24 -7 28 -15 5 -8 25 -16 44 -18 l35 -3 -10 32
c-25 77 -31 88 -52 95 -11 4 -25 6 -29 5 -4 -1 -10 5 -13 13 -4 9 -19 22 -35
30 -18 10 -26 20 -23 30 7 18 -23 22 -91 11 -11 -2 -25 0 -30 5 -6 4 -26 11
-44 14 -25 4 -31 3 -25 -7 6 -10 4 -10 -7 -2 -26 20 -44 21 -94 7z m319 -169
c3 -8 2 -12 -4 -9 -6 3 -10 10 -10 16 0 14 7 11 14 -7z m-272 -16 c-7 -7 -12
-8 -12 -2 0 14 12 26 19 19 2 -3 -1 -11 -7 -17z m-22 2 c0 -5 -8 -10 -17 -10
-15 0 -16 2 -3 10 19 12 20 12 20 0z m110 -2 c0 -6 -3 -8 -7 -5 -3 4 -11 3
-17 -3 -7 -5 -17 -5 -26 2 -12 8 -12 9 3 4 9 -3 17 -1 17 4 0 6 7 10 15 10 8
0 15 -5 15 -12z m-150 -7 c0 -5 -11 -12 -24 -15 -13 -3 -31 -9 -40 -12 -9 -3
-16 -2 -16 4 0 5 17 14 38 20 20 5 38 10 40 11 1 1 2 -3 2 -8z m-120 -53 c-38
-23 -60 -19 -35 6 10 9 24 15 31 12 8 -3 14 -1 14 5 0 6 5 7 11 3 6 -3 -2 -14
-21 -26z m115 -28 l0 -41 -40 7 c-68 11 -72 19 -24 48 24 14 49 26 54 26 6 0
10 -18 10 -40z m65 10 c0 -5 -7 -7 -15 -4 -8 4 -15 8 -15 10 0 2 7 4 15 4 8 0
15 -4 15 -10z m140 -41 c0 -4 -9 -9 -20 -12 -22 -6 -23 -3 -13 32 6 23 7 23
20 6 7 -11 13 -22 13 -26z m-383 -91 c-3 -8 -6 -5 -6 6 -1 11 2 17 5 13 3 -3
4 -12 1 -19z m-50 -80 c-3 -7 -5 -2 -5 12 0 14 2 19 5 13 2 -7 2 -19 0 -25z"/>
<path d="M3648 5906 c-27 -7 -48 -11 -48 -8 0 3 -9 -3 -20 -13 -15 -13 -20
-15 -20 -4 0 8 -6 5 -15 -8 -9 -13 -22 -20 -30 -16 -9 3 -23 -1 -32 -8 -14
-12 -16 -12 -8 1 8 13 7 13 -8 1 -9 -7 -17 -10 -17 -6 0 4 -22 -12 -50 -35
-51 -43 -80 -104 -60 -124 6 -6 10 -6 10 0 0 5 5 2 10 -6 8 -13 10 -13 10 2 0
12 5 16 18 12 13 -5 14 -4 3 4 -8 6 -11 17 -8 26 5 13 10 14 26 5 15 -10 26
-8 60 9 23 12 60 22 84 22 28 0 37 3 28 9 -13 8 42 9 139 3 l25 -2 -26 -14
c-14 -7 -53 -22 -87 -34 -33 -11 -81 -34 -106 -51 -50 -35 -96 -91 -74 -91 7
-1 3 -9 -11 -20 l-23 -20 34 0 c19 0 38 3 42 7 14 14 86 22 108 11 10 -5 19
-4 23 3 4 6 14 8 22 5 9 -4 22 -1 30 5 10 9 17 9 25 1 8 -8 15 -8 24 -1 16 13
76 30 69 19 -3 -4 4 -6 15 -3 11 3 17 10 13 16 -3 6 -1 7 6 3 16 -11 62 1 91
24 22 17 23 21 10 33 -8 8 -36 26 -62 39 -26 14 -45 28 -41 31 3 4 14 2 24 -3
10 -6 36 -12 59 -15 38 -5 40 -4 28 15 -7 11 -17 20 -22 20 -4 0 -3 6 3 13 6
8 8 17 4 20 -3 4 -1 7 7 7 10 0 10 4 -1 17 -8 9 -9 14 -2 10 6 -4 19 -4 28 0
15 5 15 8 -6 25 -20 15 -21 17 -4 12 11 -4 17 -4 13 0 -6 8 -73 26 -115 31
-12 2 -27 6 -33 10 -7 4 -28 9 -47 11 -19 2 -42 5 -51 8 -9 2 -38 -1 -64 -8z
m99 -172 c-3 -3 -12 -4 -19 -1 -8 3 -5 6 6 6 11 1 17 -2 13 -5z m-77 -18 c0
-2 -9 -6 -20 -9 -11 -3 -18 -1 -14 4 5 9 34 13 34 5z m-60 -21 c0 -2 -17 -14
-37 -25 -21 -11 -48 -27 -60 -36 -13 -9 -23 -14 -23 -10 0 7 102 76 112 76 5
0 8 -2 8 -5z m280 -57 c0 -3 -20 -6 -44 -6 -38 0 -45 3 -49 24 -2 13 -2 26 1
28 5 6 91 -37 92 -46z m-183 17 c0 -8 -4 -12 -9 -9 -4 3 -8 9 -8 15 0 5 4 9 8
9 5 0 9 -7 9 -15z m-87 -14 c0 -5 3 -16 6 -25 7 -18 -22 -22 -46 -6 -13 9 -12
12 4 25 23 17 36 19 36 6z"/>
<path d="M4260 5905 c0 -5 5 -17 10 -25 5 -8 10 -10 10 -5 0 6 -5 17 -10 25
-5 8 -10 11 -10 5z"/>
<path d="M4806 5767 c3 -10 9 -15 12 -12 3 3 0 11 -7 18 -10 9 -11 8 -5 -6z"/>
<path d="M4216 5582 c-4 -7 -3 -19 4 -27 7 -8 9 -15 4 -15 -5 0 0 -7 10 -15
14 -11 16 -15 5 -15 -12 0 -12 -2 1 -10 18 -12 40 -14 25 -2 -10 7 -17 27 -18
50 0 6 -4 12 -8 12 -4 0 -9 8 -11 18 -3 13 -5 14 -12 4z"/>
<path d="M3869 5553 c-13 -16 -12 -17 4 -4 9 7 17 15 17 17 0 8 -8 3 -21 -13z"/>
<path d="M4820 5560 c0 -5 7 -7 15 -4 8 4 15 8 15 10 0 2 -7 4 -15 4 -8 0 -15
-4 -15 -10z"/>
<path d="M3830 5545 c0 -8 5 -15 10 -15 6 0 10 7 10 15 0 8 -4 15 -10 15 -5 0
-10 -7 -10 -15z"/>
<path d="M5234 5537 c-22 -19 -25 -27 -16 -43 5 -10 12 -32 15 -49 3 -16 8
-39 13 -49 7 -18 8 -18 16 3 4 13 11 54 14 92 8 77 2 83 -42 46z"/>
<path d="M4730 5540 c-8 -5 -44 -7 -80 -5 -45 4 -59 2 -45 -4 26 -12 188 -14
181 -2 -3 5 -16 7 -28 3 -14 -3 -19 -2 -14 6 9 14 6 15 -14 2z"/>
<path d="M3773 5525 c0 -8 4 -12 9 -9 5 3 6 10 3 15 -9 13 -12 11 -12 -6z"/>
<path d="M4904 5510 c9 -23 21 -35 35 -36 12 -1 21 3 21 8 0 6 -7 8 -15 4 -8
-3 -14 -2 -12 2 1 4 -8 19 -21 32 l-23 25 15 -35z"/>
<path d="M4970 5511 c0 -6 4 -13 10 -16 6 -3 7 1 4 9 -7 18 -14 21 -14 7z"/>
<path d="M4360 5491 c0 -5 8 -12 18 -16 16 -6 16 -7 -1 -20 -11 -8 -14 -16 -8
-19 16 -10 31 27 20 47 -11 18 -29 23 -29 8z"/>
<path d="M4690 5460 c0 -5 7 -7 15 -4 8 4 15 8 15 10 0 2 -7 4 -15 4 -8 0 -15
-4 -15 -10z"/>
<path d="M4980 5461 c0 -6 4 -13 10 -16 6 -3 7 1 4 9 -7 18 -14 21 -14 7z"/>
<path d="M3150 5395 c16 -31 29 -58 30 -60 0 -3 0 -10 0 -16 0 -5 5 -7 10 -4
6 4 8 11 4 16 -10 17 -15 61 -5 55 19 -12 3 28 -18 46 -44 35 -52 21 -21 -37z"/>
<path d="M4234 5433 c3 -16 16 -22 16 -8 0 3 0 10 0 15 0 6 -4 10 -9 10 -5 0
-8 -8 -7 -17z"/>
<path d="M4290 5395 c6 -16 6 -27 -2 -31 -6 -4 -8 -3 -5 3 4 6 0 19 -9 29 -15
18 -15 18 -6 -1 6 -11 12 -24 14 -30 1 -5 6 -9 10 -8 3 1 9 -4 12 -13 4 -10 2
-13 -7 -8 -6 3 0 -5 15 -20 15 -14 33 -26 40 -26 9 0 9 3 -2 10 -8 5 -10 10
-4 10 6 0 26 -16 43 -37 45 -53 40 -85 -14 -99 -38 -9 -121 -50 -130 -64 -4
-6 -11 -8 -16 -4 -5 3 -8 0 -7 -8 2 -7 -3 -12 -9 -11 -7 2 -13 -4 -13 -13 0
-8 -4 -13 -9 -9 -6 3 -14 -1 -18 -10 -5 -8 -23 -19 -41 -24 -24 -7 -31 -7 -25
2 5 9 3 9 -8 0 -16 -13 -59 -7 -70 9 -3 6 -9 2 -12 -7 -4 -10 -3 -14 4 -10 6
4 9 -4 7 -22 -2 -23 1 -29 20 -31 20 -3 27 -13 23 -35 -1 -5 3 -6 9 -2 7 4 7
12 0 25 -14 25 -13 30 5 24 8 -4 12 -11 8 -18 -4 -6 2 -4 12 4 11 9 16 10 11
3 -4 -7 -3 -13 3 -13 5 0 12 10 14 23 4 19 4 18 6 -5 1 -28 21 -40 21 -14 0 8
5 18 12 22 6 4 8 3 4 -4 -3 -6 -2 -13 3 -16 5 -3 12 2 16 12 7 16 8 15 15 -3
9 -19 9 -19 16 3 3 12 17 25 30 28 13 3 21 10 18 15 -3 5 1 9 9 9 18 0 39 -24
30 -33 -3 -4 -1 -7 6 -7 8 0 11 7 7 15 -3 8 -1 16 4 16 6 1 15 3 20 4 6 1 15
3 20 4 6 0 10 6 10 12 0 5 -5 7 -12 3 -7 -4 -8 -3 -4 4 10 16 53 -13 62 -40 5
-16 8 -18 15 -7 6 9 3 18 -6 25 -13 10 -13 12 5 17 12 3 20 0 20 -7 0 -6 9
-17 20 -24 12 -7 20 -8 20 -2 0 15 27 12 33 -4 3 -7 1 -18 -4 -23 -11 -11 17
-53 36 -53 8 0 17 -4 20 -10 3 -6 -1 -7 -10 -4 -8 4 -22 1 -30 -6 -9 -7 -15
-8 -15 -2 0 5 -9 8 -20 5 -12 -3 -20 0 -20 6 0 7 -5 9 -12 4 -19 -11 -38 -13
-38 -2 0 5 -10 5 -23 0 -13 -5 -30 -5 -38 -1 -9 6 -20 3 -33 -8 -11 -9 -16
-12 -13 -5 13 21 -18 21 -43 -1 -13 -11 -19 -14 -12 -5 11 14 9 17 -13 17 -14
0 -25 -4 -25 -9 0 -5 -7 -5 -17 -2 -12 5 -14 3 -8 -7 6 -10 4 -11 -6 -4 -20
12 -38 14 -44 4 -3 -5 -13 -6 -22 -3 -9 4 -14 2 -11 -3 4 -5 -4 -9 -17 -9 -13
0 -21 3 -18 8 2 4 -8 7 -24 8 -15 0 -37 2 -48 5 -58 11 -95 13 -95 3 0 -5 4
-8 9 -4 5 3 13 0 17 -6 4 -8 9 -7 15 2 7 11 9 11 9 1 0 -7 5 -10 12 -6 6 4 8
3 5 -4 -7 -11 -32 -11 -43 1 -4 4 -13 2 -21 -5 -8 -6 -13 -7 -12 -2 5 27 -1
36 -16 24 -8 -7 -15 -9 -15 -5 0 4 -6 2 -13 -4 -8 -6 -17 -8 -21 -4 -15 16
-59 10 -63 -8 -3 -10 -9 -17 -13 -14 -4 3 -11 -2 -14 -11 -3 -8 -10 -12 -16
-9 -5 3 -7 0 -4 -8 3 -8 0 -18 -7 -23 -8 -4 -10 -3 -5 4 4 7 5 12 2 12 -3 0
-10 -10 -17 -21 -9 -17 -8 -20 2 -14 9 6 11 4 6 -7 -4 -11 13 -30 54 -62 32
-25 59 -50 59 -55 0 -5 17 -17 38 -27 37 -18 43 -20 63 -23 5 0 7 -6 3 -13 -4
-7 -3 -8 5 -4 6 4 9 12 6 17 -4 5 -2 9 4 9 5 0 12 -4 15 -8 8 -13 97 -5 123
11 6 4 15 2 19 -4 4 -8 9 -7 15 2 7 11 9 11 9 -1 0 -13 1 -13 10 0 6 10 10 11
10 3 0 -7 7 -13 16 -13 8 0 12 5 8 11 -4 8 -1 8 12 1 11 -5 28 -6 39 -2 24 9
46 2 61 -18 9 -12 13 -13 19 -2 5 9 4 11 -3 6 -7 -4 -12 -2 -12 3 0 6 9 11 21
11 13 0 18 -4 13 -12 -4 -7 1 -6 12 4 10 9 34 19 52 21 19 3 43 14 54 24 56
52 77 75 91 105 23 48 76 100 94 94 11 -5 13 -2 9 10 -3 8 -6 20 -6 25 0 6 -4
8 -9 5 -9 -6 -26 22 -22 38 1 5 -4 4 -13 -3 -9 -8 -16 -8 -21 -2 -3 6 6 13 20
17 14 3 25 10 25 16 0 5 -4 7 -8 4 -5 -3 -18 5 -29 17 -15 18 -17 25 -7 35 10
9 13 7 16 -11 2 -13 11 -23 23 -25 18 -2 18 -2 3 8 -21 13 -24 32 -4 24 18 -7
30 12 15 22 -8 4 -9 3 -5 -4 9 -15 6 -15 -38 3 -32 13 -35 18 -26 39 7 19 5
26 -6 30 -22 9 -26 7 -18 -6 4 -7 3 -8 -4 -4 -7 4 -12 14 -12 22 0 8 -5 14
-11 14 -5 0 -7 5 -3 11 4 8 9 8 17 0 6 -6 15 -11 21 -11 5 0 1 6 -9 14 -11 8
-24 12 -30 10 -12 -5 -13 42 0 53 4 5 4 2 0 -6 -6 -11 -4 -13 7 -8 9 3 26 -1
37 -10 27 -18 40 -10 18 11 -8 8 -17 12 -21 9 -3 -4 -6 -1 -6 6 0 17 -18 34
-81 74 -78 50 -123 72 -113 55 6 -10 5 -11 -8 -1 -8 7 -18 10 -21 6 -4 -3 -10
8 -13 25 -4 18 -10 32 -15 32 -5 0 -4 -11 1 -25z m140 -333 c0 -5 -7 -9 -15
-9 -8 0 -12 4 -9 9 3 4 9 8 15 8 5 0 9 -4 9 -8z m150 -67 c7 -9 10 -18 7 -21
-10 -11 -37 5 -37 21 0 19 14 19 30 0z m-329 -108 c-10 -9 -11 -8 -5 6 3 10 9
15 12 12 3 -3 0 -11 -7 -18z m-307 -30 c3 3 6 -1 6 -11 0 -9 5 -14 10 -11 6 4
8 11 4 16 -7 13 44 3 61 -11 7 -6 16 -7 19 -2 2 4 29 6 58 2 29 -3 71 -2 93 2
22 4 58 7 81 7 22 1 46 7 53 14 10 10 15 8 25 -6 12 -15 15 -15 26 -2 14 17
46 20 55 5 4 -6 10 -8 15 -5 11 7 50 -16 50 -28 0 -4 -4 -5 -10 -2 -5 3 -10
-1 -10 -9 0 -24 -22 -31 -37 -11 -12 18 -13 18 -13 -3 0 -33 -29 -40 -52 -13
l-18 23 0 -22 c0 -18 -5 -21 -32 -18 -21 2 -37 -3 -45 -12 -7 -10 -32 -16 -70
-17 -32 -2 -73 -6 -90 -9 -18 -3 -41 -3 -50 1 -34 13 -104 12 -112 -3 -7 -12
-10 -12 -22 0 -8 8 -27 18 -42 22 -53 13 -63 87 -12 81 22 -2 26 1 22 16 -4
15 -2 17 13 9 9 -5 20 -6 24 -3z"/>
<path d="M4700 5406 c0 -3 9 -10 20 -16 11 -6 20 -8 20 -6 0 3 -9 10 -20 16
-11 6 -20 8 -20 6z"/>
<path d="M5108 5263 c7 -3 16 -2 19 1 4 3 -2 6 -13 5 -11 0 -14 -3 -6 -6z"/>
<path d="M3776 5245 c-11 -8 -15 -15 -9 -15 6 0 16 7 23 15 16 19 11 19 -14 0z"/>
<path d="M3725 5193 c3 -29 11 -38 20 -24 3 6 1 11 -4 11 -6 0 -11 5 -11 11 0
5 5 7 12 3 6 -4 8 -3 4 4 -3 5 0 12 6 15 7 3 3 5 -8 4 -17 -1 -21 -7 -19 -24z"/>
<path d="M3706 5165 c6 -14 4 -16 -7 -10 -11 7 -12 6 -2 -6 10 -13 9 -19 -5
-35 -27 -31 -40 -53 -82 -140 -44 -91 -46 -99 -26 -119 12 -12 15 -8 22 28 4
23 8 47 8 52 1 6 4 12 7 15 5 5 56 94 87 155 8 17 19 33 24 36 5 3 -1 14 -12
24 -20 18 -21 18 -14 0z"/>
<path d="M3244 5145 c4 -24 16 -30 16 -7 0 12 -4 22 -9 22 -5 0 -8 -7 -7 -15z"/>
<path d="M4605 5129 c11 -15 23 -25 26 -23 17 10 59 -60 63 -106 2 -17 33 -90
39 -90 2 0 4 7 4 15 0 8 -4 15 -9 15 -5 0 -7 4 -4 9 3 5 -1 14 -9 21 -8 7 -12
17 -9 22 3 5 12 1 20 -9 14 -18 14 -13 -1 32 -5 16 -8 17 -16 5 -8 -12 -9 -11
-5 5 6 23 -20 56 -79 100 -39 30 -39 30 -20 4z"/>
<path d="M3884 5125 c-4 -8 -10 -13 -14 -10 -4 3 -10 -2 -14 -10 -7 -19 8 -19
28 0 21 21 57 20 49 -2 -4 -10 -2 -14 4 -10 6 4 14 1 17 -5 3 -7 4 -4 3 7 -4
35 -62 59 -73 30z"/>
<path d="M4580 5080 c0 -5 7 -10 16 -10 8 0 12 5 9 10 -3 6 -10 10 -16 10 -5
0 -9 -4 -9 -10z"/>
<path d="M3850 5071 c0 -6 4 -13 10 -16 6 -3 7 1 4 9 -7 18 -14 21 -14 7z"/>
<path d="M4101 5066 c-10 -11 -9 -14 1 -12 14 2 23 15 15 22 -2 2 -10 -2 -16
-10z"/>
<path d="M3810 5050 c0 -5 5 -10 11 -10 5 0 7 5 4 10 -3 6 -8 10 -11 10 -2 0
-4 -4 -4 -10z"/>
<path d="M3743 5033 c0 -9 4 -10 14 -2 7 6 13 12 13 14 0 1 -6 2 -13 2 -8 0
-14 -6 -14 -14z"/>
<path d="M3933 5043 c4 -3 1 -13 -6 -22 -11 -14 -10 -14 6 -2 20 15 22 31 5
31 -6 0 -8 -3 -5 -7z"/>
<path d="M4945 5040 c-3 -6 1 -7 9 -4 18 7 21 14 7 14 -6 0 -13 -4 -16 -10z"/>
<path d="M5069 5033 c-3 -41 -7 -62 -12 -77 -4 -9 -2 -16 4 -16 12 0 16 12 22
68 3 23 1 42 -4 42 -5 0 -10 -8 -10 -17z"/>
<path d="M3790 5020 c0 -6 5 -8 12 -4 8 5 9 2 5 -9 -3 -10 -2 -17 4 -17 14 0
7 32 -8 38 -7 2 -13 -1 -13 -8z"/>
<path d="M3984 5023 c4 -7 2 -13 -3 -13 -6 0 -11 -4 -11 -10 0 -12 27 -13 34
-1 3 5 -2 15 -11 22 -12 10 -14 10 -9 2z"/>
<path d="M4653 4978 c-1 -11 1 -16 5 -12 4 5 11 12 15 15 5 3 2 9 -5 12 -9 3
-14 -3 -15 -15z"/>
<path d="M4920 4982 c0 -8 -5 -10 -12 -6 -7 4 -5 -1 4 -11 21 -22 34 -14 19
12 -6 11 -11 13 -11 5z"/>
<path d="M5007 4934 c-4 -4 -7 -14 -7 -23 0 -11 3 -10 15 5 8 10 15 14 15 7 0
-6 -8 -19 -17 -29 -13 -13 -14 -19 -5 -22 6 -2 12 -8 12 -14 0 -6 -8 -7 -17
-4 -15 6 -14 4 2 -14 16 -18 17 -20 2 -14 -13 5 -21 -3 -33 -31 -9 -23 -20
-35 -29 -32 -19 8 -27 -4 -14 -20 9 -9 15 -10 25 -3 10 9 11 7 7 -9 -3 -12
-10 -18 -17 -14 -6 4 -5 -1 3 -11 12 -15 12 -17 0 -14 -8 2 -13 -2 -12 -8 1
-5 -7 -16 -18 -23 -18 -11 -21 -9 -26 8 -3 12 -10 21 -15 21 -5 0 -6 -5 -2
-12 5 -8 2 -9 -9 -5 -22 8 -47 -28 -41 -62 5 -25 4 -25 -9 -6 -12 16 -13 25
-3 55 10 28 10 40 -1 60 l-13 25 -1 -25 c-1 -14 -1 -31 0 -39 2 -7 -2 -10 -8
-7 -10 6 -37 -32 -33 -46 1 -5 -3 -8 -8 -8 -16 0 -24 -3 -37 -14 -9 -9 -8 -14
3 -22 12 -10 12 -13 -1 -24 -13 -11 -15 -10 -9 6 4 14 3 15 -4 6 -5 -8 -9 -23
-8 -35 2 -22 -28 -57 -47 -57 -5 0 -4 -6 2 -14 8 -10 8 -16 -3 -25 -10 -8 -16
-9 -21 -1 -4 7 -13 6 -28 -2 -12 -7 -26 -12 -31 -13 -5 0 -10 -8 -12 -18 -2
-15 0 -16 14 -5 13 11 13 8 -2 -18 -14 -24 -24 -30 -45 -27 -21 2 -19 1 7 -7
34 -11 45 -26 12 -17 -12 3 -20 0 -20 -8 0 -7 -6 -15 -12 -17 -20 -8 -39 2
-31 15 3 7 2 9 -2 4 -5 -4 -10 -18 -12 -30 -2 -17 -1 -19 7 -7 5 8 10 13 11
10 0 -3 2 -13 4 -23 2 -10 -1 -14 -7 -11 -7 5 -9 -2 -4 -20 4 -15 2 -26 -4
-26 -5 0 -10 -9 -10 -20 0 -11 -4 -20 -10 -20 -5 0 -10 -5 -10 -11 0 -8 5 -8
15 1 11 9 15 9 15 1 0 -7 6 -9 13 -5 6 4 5 -1 -4 -10 -9 -9 -32 -18 -52 -19
-19 -1 -35 -4 -34 -7 0 -3 -2 -15 -7 -27 -6 -18 -11 -21 -30 -13 -17 6 -25 4
-35 -11 -6 -11 -16 -17 -21 -14 -6 4 -8 11 -4 16 3 6 -4 9 -18 8 -45 -4 -58 0
-51 17 4 12 -1 10 -20 -6 -15 -13 -23 -28 -20 -34 4 -6 -4 -3 -19 6 -18 12
-28 14 -36 6 -7 -7 -17 -6 -31 4 -21 15 -19 30 2 22 7 -2 18 5 25 16 7 12 8
20 2 20 -5 0 -10 -5 -10 -11 0 -5 -4 -8 -9 -4 -5 3 -12 1 -16 -5 -4 -6 -10 -8
-15 -5 -4 3 -11 -2 -14 -11 -5 -13 -9 -14 -20 -5 -17 15 -28 1 -15 -19 5 -8 9
-10 9 -4 0 6 7 11 15 11 20 0 19 -21 -2 -38 -13 -11 -17 -11 -20 -2 -3 9 -10
10 -24 3 -16 -9 -17 -8 -12 7 6 16 5 16 -10 4 -14 -11 -18 -11 -22 1 -4 9 -16
14 -31 12 -14 -1 -22 2 -18 8 3 5 -2 16 -12 23 -11 8 -15 15 -10 15 5 0 3 7
-4 15 -10 12 -10 15 1 15 11 0 11 2 -1 9 -16 11 -33 4 -25 -10 4 -5 2 -9 -4
-9 -5 0 -13 5 -16 10 -3 6 -1 10 6 10 7 0 9 3 6 7 -4 3 -1 13 5 22 10 13 10
14 -2 4 -22 -20 -32 -15 -19 8 10 20 9 21 -16 15 -22 -6 -26 -4 -22 8 4 10 1
16 -7 16 -23 0 -37 25 -23 39 10 11 8 11 -9 3 -12 -7 -26 -7 -35 -1 -11 7 -11
9 4 9 9 0 17 5 17 11 0 5 -4 7 -10 4 -5 -3 -10 -2 -10 4 0 5 6 12 13 14 6 3
-3 6 -22 6 l-34 1 22 19 c13 12 18 22 11 26 -5 3 -14 4 -18 1 -4 -2 -9 4 -9
15 -1 11 -11 31 -22 45 -12 15 -21 32 -21 39 0 19 -27 38 -35 25 -3 -5 -18
-10 -33 -11 -15 0 -21 -3 -14 -6 6 -2 10 -9 6 -14 -3 -5 2 -12 10 -15 13 -5
13 -8 1 -20 -16 -17 -29 -19 -20 -3 4 6 -2 17 -14 25 -12 9 -19 20 -16 25 4 5
2 9 -3 9 -6 0 -12 7 -16 15 -4 13 -2 13 14 5 24 -13 30 -13 30 0 0 5 -3 9 -7
9 -24 -4 -25 3 -3 16 24 14 24 14 -15 10 -36 -3 -40 -5 -37 -29 1 -15 14 -43
28 -63 13 -20 22 -43 19 -50 -3 -8 0 -11 6 -8 6 4 13 -2 16 -14 3 -12 10 -21
15 -21 5 0 7 -4 3 -9 -3 -5 2 -16 10 -24 8 -9 15 -24 15 -34 0 -15 2 -16 11
-3 9 12 10 11 6 -7 -5 -25 0 -28 22 -14 8 5 10 14 6 21 -5 8 -4 11 3 6 6 -3
13 -2 17 4 3 5 -6 12 -20 16 -13 3 -23 10 -20 14 3 5 1 11 -5 15 -11 7 -9 33
3 53 5 7 3 12 -4 12 -7 0 -10 2 -7 5 3 3 13 3 22 -1 13 -5 14 -9 5 -20 -6 -8
-8 -14 -4 -14 4 0 2 -6 -4 -14 -10 -12 -8 -13 11 -9 18 5 21 3 11 -7 -9 -10
-7 -17 10 -31 15 -12 18 -21 11 -26 -24 -17 -32 -46 -18 -61 8 -7 12 -18 9
-23 -4 -5 -1 -9 4 -9 6 0 11 -6 11 -14 0 -8 5 -18 12 -22 7 -5 8 -3 3 7 -5 8
0 7 12 -4 11 -9 23 -14 28 -10 4 5 5 2 1 -5 -4 -7 -12 -10 -17 -7 -5 4 -9 3
-9 0 0 -8 27 -35 37 -38 11 -3 4 -20 -10 -29 -7 -4 -8 -8 -2 -8 6 0 20 6 31
14 14 10 24 12 35 4 11 -8 9 -8 -6 -4 -14 5 -12 0 10 -18 17 -14 35 -26 40
-26 6 0 3 -5 -5 -10 -11 -8 -8 -9 12 -4 18 4 29 1 35 -11 5 -9 18 -18 29 -20
10 -2 21 -4 23 -4 2 -1 -2 -7 -8 -15 -9 -11 -8 -15 5 -20 9 -4 19 -4 22 -1 3
3 0 5 -7 5 -7 0 -9 5 -5 11 4 8 9 8 17 0 6 -6 20 -11 32 -12 11 0 14 -3 7 -6
-24 -9 -2 -20 34 -16 20 2 42 -1 50 -8 8 -6 25 -9 39 -7 22 5 23 3 13 -10 -11
-13 -10 -14 8 -4 12 6 24 9 27 5 4 -3 12 -1 19 4 20 16 88 4 88 -15 0 -13 3
-12 16 4 8 10 13 12 9 4 -4 -8 2 -6 12 5 16 18 29 22 51 15 4 -1 10 -2 15 -1
4 0 7 -3 7 -9 0 -5 7 -7 15 -4 8 4 12 11 8 18 -4 6 0 5 9 -2 14 -11 17 -10 22
5 3 10 16 20 28 20 17 2 19 0 8 -7 -22 -13 -5 -23 27 -16 18 5 23 10 14 15
-18 11 47 23 66 12 13 -7 13 -9 -1 -14 -10 -4 -15 -3 -11 3 3 6 -1 10 -10 10
-9 0 -13 -4 -10 -10 3 -5 -6 -12 -20 -16 -13 -3 -23 -10 -20 -15 3 -4 24 -1
47 7 49 17 49 17 42 1 -3 -8 2 -14 11 -14 8 0 14 5 12 11 -7 19 14 48 29 42 9
-3 12 -1 9 4 -3 6 1 10 9 10 9 0 16 5 16 10 0 7 -7 7 -21 -1 -16 -8 -20 -8
-17 1 2 6 6 10 8 9 17 -8 51 27 60 62 8 30 15 39 27 35 10 -4 14 -2 10 8 -3 8
-3 17 1 20 3 4 7 13 8 22 2 12 0 13 -12 3 -8 -6 -17 -9 -21 -5 -3 3 0 6 8 6
12 0 11 2 -1 11 -13 9 -13 10 0 8 29 -3 40 1 40 16 0 8 8 15 18 15 10 0 23 5
29 11 14 14 5 41 -11 33 -6 -3 -2 2 8 10 11 9 25 16 32 16 6 0 18 8 25 18 13
15 12 16 -3 3 -11 -8 -18 -9 -18 -3 0 6 7 15 15 20 22 12 8 45 -16 39 -11 -3
-17 -1 -13 4 3 5 17 9 32 10 15 0 22 3 15 5 -13 6 -4 40 25 104 9 19 15 38 14
42 -1 3 10 39 23 78 19 56 21 71 10 66 -8 -3 -15 -1 -15 4 0 6 4 10 8 10 5 0
7 14 6 30 -2 26 1 30 16 25 18 -6 18 -4 3 25 -8 17 -12 34 -9 37 3 4 6 1 6 -6
0 -7 4 -10 10 -6 5 3 7 12 3 20 -3 9 1 15 10 15 19 0 23 5 32 49 5 23 4 31 -4
27 -6 -4 -11 -2 -11 3 0 6 6 11 13 11 8 0 14 7 14 15 0 8 -4 15 -8 15 -4 0
-14 2 -21 5 -8 3 -17 2 -21 -1z m-123 -329 c-25 -19 -44 -19 -44 1 0 8 5 12
10 9 6 -3 10 -2 10 4 0 6 7 7 17 4 12 -5 14 -3 8 8 -6 11 -5 12 5 2 12 -11 11
-15 -6 -28z m-17 -101 c-3 -3 -12 -4 -19 -1 -8 3 -5 6 6 6 11 1 17 -2 13 -5z
m-1242 -34 c11 -5 15 -9 8 -9 -7 -1 -10 -7 -7 -15 3 -7 -2 -16 -12 -20 -12 -5
-15 -2 -10 9 3 9 -1 18 -9 21 -8 4 -12 10 -9 15 6 11 12 10 39 -1z m1169 -18
c3 -5 -1 -9 -9 -9 -8 0 -12 4 -9 9 3 4 7 8 9 8 2 0 6 -4 9 -8z m-180 -40 c3
-5 -1 -9 -9 -9 -8 0 -15 4 -15 9 0 4 4 8 9 8 6 0 12 -4 15 -8z m-86 -121 c-7
-11 -16 -17 -21 -14 -4 3 0 11 10 19 24 18 25 17 11 -5z m72 -20 c0 -6 -4 -13
-10 -16 -5 -3 -10 1 -10 9 0 9 5 16 10 16 6 0 10 -4 10 -9z m-815 -61 c3 -5 1
-10 -4 -10 -6 0 -11 5 -11 10 0 6 2 10 4 10 3 0 8 -4 11 -10z m708 -10 c-3
-11 -9 -17 -15 -14 -5 3 -4 12 3 20 16 19 18 18 12 -6z m-609 -85 c-4 -8 -10
-12 -15 -9 -11 6 -2 24 11 24 5 0 7 -7 4 -15z m209 -52 c-5 -12 -3 -14 7 -8 9
5 11 4 6 -3 -7 -11 -36 -17 -36 -8 0 13 13 36 21 36 4 0 5 -7 2 -17z m582 -34
c-8 -12 -35 -12 -35 0 0 11 22 20 33 14 4 -2 5 -9 2 -14z m-124 -52 c-13 -13
-26 -3 -16 12 3 6 11 8 17 5 6 -4 6 -10 -1 -17z m91 -9 c-7 -7 -16 -7 -28 0
-14 8 -13 10 10 10 18 0 24 -4 18 -10z"/>
<path d="M3873 4923 c-7 -2 -13 -9 -13 -15 0 -7 5 -7 13 1 8 6 18 7 22 3 5 -4
5 -1 1 6 -4 6 -8 12 -9 11 -1 0 -8 -3 -14 -6z"/>
<path d="M4907 4893 c3 -7 9 -10 14 -7 14 8 11 21 -5 21 -8 0 -12 -6 -9 -14z"/>
<path d="M4931 4804 c0 -11 3 -14 6 -6 3 7 2 16 -1 19 -3 4 -6 -2 -5 -13z"/>
<path d="M4905 4791 c4 -8 2 -17 -6 -22 -9 -6 -10 -9 -2 -9 19 0 27 21 13 33
-10 9 -11 9 -5 -2z"/>
<path d="M4828 4763 c10 -4 10 -8 1 -19 -7 -8 -7 -14 -1 -14 12 0 23 26 15 34
-4 3 -11 6 -17 5 -6 0 -5 -3 2 -6z"/>
<path d="M4902 4696 c1 -14 5 -23 9 -20 7 4 0 44 -7 44 -2 0 -3 -11 -2 -24z"/>
<path d="M4985 4701 c-3 -5 -2 -12 3 -15 5 -3 9 1 9 9 0 17 -3 19 -12 6z"/>
<path d="M3585 4532 c-6 -6 4 -22 15 -22 4 0 10 6 13 13 5 13 -17 20 -28 9z"/>
<path d="M4615 4487 c-12 -15 -20 -45 -9 -35 4 4 13 3 20 -3 8 -7 14 -7 19 1
3 5 0 10 -8 10 -10 0 -13 7 -10 20 6 23 2 25 -12 7z"/>
<path d="M4550 4448 c0 -4 7 -8 15 -8 8 0 15 4 15 8 0 5 -7 9 -15 9 -8 0 -15
-4 -15 -9z"/>
<path d="M4518 4423 c7 -3 16 -2 19 1 4 3 -2 6 -13 5 -11 0 -14 -3 -6 -6z"/>
<path d="M4471 4383 c-1 -16 16 -26 23 -14 3 5 15 7 26 4 11 -3 20 -1 20 4 0
11 -29 11 -47 0 -6 -4 -14 -1 -16 5 -4 9 -6 10 -6 1z"/>
<path d="M3441 4325 c-39 -45 -65 -97 -80 -160 -6 -27 -17 -75 -24 -105 l-13
-55 -75 -23 c-247 -76 -691 -229 -782 -271 -38 -17 -96 -38 -130 -47 -98 -24
-169 -53 -207 -83 -19 -15 -62 -42 -95 -60 -33 -18 -67 -40 -76 -48 -10 -8
-38 -22 -63 -31 -59 -22 -152 -89 -166 -121 -6 -13 -42 -65 -79 -115 -83 -112
-169 -270 -217 -402 -134 -368 -201 -606 -273 -964 -46 -226 -111 -527 -126
-585 -7 -27 -16 -66 -19 -86 -3 -20 -10 -48 -15 -62 -5 -14 -7 -28 -4 -31 4
-3 1 -6 -5 -6 -7 0 -12 -8 -12 -18 0 -10 -4 -22 -9 -27 -12 -12 -82 -264 -111
-400 -12 -55 -26 -114 -32 -132 -6 -22 -6 -39 2 -54 8 -15 9 -19 1 -15 -10 6
-16 -13 -12 -36 0 -5 -3 -8 -7 -8 -11 0 -12 -5 -16 -140 -3 -100 -9 -143 -32
-222 -5 -17 26 -18 547 -18 l553 0 -41 42 c-63 66 -68 81 -44 131 31 62 89
137 106 137 28 0 37 -51 33 -182 l-4 -128 2212 0 2211 0 7 113 c17 255 22 297
32 307 8 8 23 -3 55 -42 24 -29 57 -64 72 -78 34 -30 108 -208 110 -262 l2
-38 502 0 c277 0 503 2 503 4 0 3 -4 16 -10 31 -5 14 -21 114 -35 222 -14 107
-27 198 -30 202 -5 9 -96 406 -145 636 -84 394 -203 833 -329 1210 -102 308
-166 473 -277 715 -81 178 -94 200 -149 255 -79 78 -128 111 -283 193 -143 75
-311 148 -607 262 -55 21 -127 50 -159 64 -33 15 -107 42 -165 61 -58 18 -158
60 -221 92 -112 57 -114 59 -122 98 -4 22 -30 85 -57 140 -27 55 -56 116 -64
135 -14 35 -14 34 -21 -65 -4 -55 -14 -112 -21 -127 -7 -15 -16 -42 -20 -59
-6 -24 -9 -28 -17 -18 -8 11 -9 10 -4 -4 3 -9 1 -29 -5 -44 -8 -22 -12 -25
-20 -13 -8 12 -9 10 -4 -6 6 -23 -23 -96 -36 -88 -4 2 -11 -10 -15 -28 -4 -18
-9 -27 -12 -19 -3 8 -12 1 -26 -21 -51 -83 -61 -95 -89 -111 -16 -10 -33 -14
-38 -11 -5 3 -8 0 -7 -7 2 -7 -2 -13 -9 -14 -6 0 -15 -4 -20 -9 -5 -5 -3 -6 4
-2 9 5 12 -1 11 -19 -2 -21 -5 -23 -13 -12 -8 12 -14 10 -29 -12 l-20 -26 22
19 c12 11 22 15 22 9 0 -5 -11 -15 -24 -22 -13 -7 -34 -26 -45 -42 -12 -16
-26 -29 -30 -29 -15 0 -91 -53 -91 -62 0 -5 -9 -7 -19 -3 -15 4 -22 -1 -30
-27 -15 -42 -117 -119 -161 -120 -25 -1 -27 -3 -13 -13 10 -7 12 -14 6 -18 -6
-4 -16 0 -23 8 -14 17 -40 20 -40 5 0 -6 -20 1 -45 15 -49 27 -59 30 -51 16 5
-8 -22 -8 -31 -1 -2 2 -8 3 -14 4 -5 0 -19 12 -30 26 -12 14 -17 18 -13 10 4
-8 -22 15 -59 52 -37 37 -67 71 -67 75 0 7 -18 29 -100 121 -11 12 -20 33 -21
45 0 21 -1 21 -9 2 -7 -16 -9 -16 -9 -4 -1 9 -8 19 -16 23 -8 3 -15 12 -15 20
0 7 -7 17 -16 20 -9 4 -14 13 -10 21 3 8 0 14 -6 12 -12 -2 -100 151 -130 228
-18 45 -20 66 -15 208 3 86 4 157 2 157 -1 0 -17 -16 -34 -35z m725 -1040 c1
-8 -1 -15 -6 -15 -10 0 -20 26 -13 34 8 8 16 -1 19 -19z m-346 -24 c39 -38 48
-76 25 -101 -25 -27 -51 -25 -80 6 -33 36 -42 80 -19 105 24 26 41 24 74 -10z
m908 -63 c28 -28 6 -98 -31 -98 -43 0 -61 45 -37 91 12 21 50 25 68 7z m-1119
-7 c38 -24 -1 -118 -43 -105 -29 9 -37 24 -31 58 9 51 39 69 74 47z m361 -64
c0 -2 -10 -12 -22 -23 l-23 -19 19 23 c18 21 26 27 26 19z m125 -277 c3 -5 -1
-10 -10 -10 -9 0 -13 5 -10 10 3 6 8 10 10 10 2 0 7 -4 10 -10z m80 -355 c40
-39 28 -111 -22 -134 -36 -16 -51 -14 -78 14 -50 49 -17 145 50 145 14 0 37
-11 50 -25z m-138 -330 c0 -8 -4 -12 -9 -9 -5 3 -6 10 -3 15 9 13 12 11 12 -6z
m-87 -5 c0 -5 -5 -10 -11 -10 -5 0 -7 5 -4 10 3 6 8 10 11 10 2 0 4 -4 4 -10z
m90 -151 c0 -5 -4 -9 -8 -9 -5 0 -9 7 -9 15 0 8 4 12 9 9 4 -3 8 -9 8 -15z
m-100 1 c0 -5 -5 -10 -11 -10 -5 0 -7 5 -4 10 3 6 8 10 11 10 2 0 4 -4 4 -10z
m-1000 -910 c0 -5 -5 -10 -11 -10 -5 0 -7 5 -4 10 3 6 8 10 11 10 2 0 4 -4 4
-10z m1155 -6 c19 -8 45 -55 45 -84 0 -90 -115 -128 -154 -51 -36 71 38 162
109 135z m-815 -80 c0 -8 -19 -13 -24 -6 -3 5 1 9 9 9 8 0 15 -2 15 -3z m17
-249 c0 -8 -4 -12 -9 -9 -5 3 -6 10 -3 15 9 13 12 11 12 -6z m-2458 -362 c-1
-5 0 -10 1 -13 7 -19 7 -41 -1 -46 -5 -3 -10 2 -10 10 -1 9 -2 22 -3 29 -2 13
3 27 10 27 2 0 3 -3 3 -7z"/>
<path d="M3785 4321 c-3 -5 2 -11 10 -15 8 -3 17 -1 20 3 3 5 -2 11 -10 15 -8
3 -17 1 -20 -3z"/>
<path d="M4828 4194 c-16 -8 -28 -17 -28 -19 0 -11 27 -3 50 15 29 23 17 26
-22 4z"/>
<path d="M3965 4100 c-3 -5 -1 -10 4 -10 6 0 11 5 11 10 0 6 -2 10 -4 10 -3 0
-8 -4 -11 -10z"/>
<path d="M4765 4060 c-3 -5 -5 -10 -3 -11 27 -7 39 -4 50 9 12 15 11 16 -4 3
-12 -9 -18 -10 -18 -2 0 14 -17 15 -25 1z"/>
<path d="M4566 3912 c-3 -5 1 -9 9 -9 8 0 12 4 9 9 -3 4 -7 8 -9 8 -2 0 -6 -4
-9 -8z"/>
<path d="M4381 3894 c0 -11 3 -14 6 -6 3 7 2 16 -1 19 -3 4 -6 -2 -5 -13z"/>
<path d="M4467 3898 c2 -5 -1 -8 -8 -8 -7 0 -10 -2 -8 -5 3 -2 19 -1 37 4 26
8 30 7 25 -7 -4 -13 -3 -14 5 -3 7 10 14 11 31 2 14 -8 21 -8 21 -1 0 5 -7 10
-16 10 -8 0 -13 4 -10 8 3 5 -14 8 -38 8 -24 -1 -42 -4 -39 -8z"/>
<path d="M4664 3902 c3 -5 0 -13 -6 -15 -9 -4 -10 -6 -1 -6 17 -1 25 16 12 25
-7 4 -9 3 -5 -4z"/>
<path d="M4475 3870 c-3 -6 1 -7 9 -4 18 7 21 14 7 14 -6 0 -13 -4 -16 -10z"/>
<path d="M4592 3864 c-10 -11 -17 -12 -35 -2 -19 10 -21 9 -9 -4 9 -11 10 -18
2 -23 -5 -3 -10 -11 -10 -18 0 -6 6 -4 13 5 6 9 25 22 41 30 16 8 25 17 20 20
-5 3 -15 0 -22 -8z"/>
<path d="M4498 3843 c7 -3 16 -2 19 1 4 3 -2 6 -13 5 -11 0 -14 -3 -6 -6z"/>
<path d="M4600 3840 c-13 -8 -13 -10 2 -10 9 0 20 5 23 10 8 13 -5 13 -25 0z"/>
<path d="M4480 3820 c-8 -5 -10 -10 -5 -10 6 0 17 5 25 10 8 5 11 10 5 10 -5
0 -17 -5 -25 -10z"/>
<path d="M4465 3790 c-3 -6 1 -7 9 -4 18 7 21 14 7 14 -6 0 -13 -4 -16 -10z"/>
<path d="M4566 3793 c-4 -4 -15 -8 -23 -8 -9 0 -17 -6 -19 -13 -1 -7 0 -8 3
-2 2 5 9 10 14 10 14 0 11 -28 -3 -33 -10 -4 -10 -6 -1 -6 7 -1 19 13 28 29
15 29 16 37 1 23z"/>
<path d="M4435 3750 c-4 -6 3 -10 14 -10 25 0 27 6 6 13 -8 4 -17 2 -20 -3z"/>
<path d="M4479 3713 c-13 -16 -12 -17 4 -4 9 7 17 15 17 17 0 8 -8 3 -21 -13z"/>
<path d="M4510 3715 c-11 -13 -10 -14 4 -9 9 3 16 10 16 15 0 13 -6 11 -20 -6z"/>
<path d="M4468 3668 c-9 -5 -6 -8 9 -8 12 0 24 4 27 8 7 11 -19 11 -36 0z"/>
</g>
</svg>
